<?xml version="1.0" encoding="UTF-8"?>
<svg xmlns="http://www.w3.org/2000/svg" xmlns:xlink="http://www.w3.org/1999/xlink" viewBox="0 0 1329.22 781.88">
  <defs>
    <style>
      .cls-1 {
        fill: url(#Dégradé_sans_nom_71-20);
        opacity: .29;
      }

      .cls-2 {
        fill: url(#Dégradé_sans_nom_71-15);
      }

      .cls-2, .cls-3, .cls-4, .cls-5, .cls-6, .cls-7, .cls-8, .cls-9, .cls-10, .cls-11, .cls-12 {
        opacity: .2;
      }

      .cls-13 {
        fill: url(#Dégradé_sans_nom_37);
      }

      .cls-3 {
        fill: url(#Dégradé_sans_nom_71-4);
      }

      .cls-4 {
        fill: url(#Dégradé_sans_nom_71-11);
      }

      .cls-5 {
        fill: url(#Dégradé_sans_nom_71-16);
      }

      .cls-14 {
        fill: url(#Dégradé_sans_nom_71);
      }

      .cls-15 {
        fill: url(#Dégradé_sans_nom_71-21);
      }

      .cls-15, .cls-16, .cls-17, .cls-18 {
        opacity: .3;
      }

      .cls-6 {
        fill: url(#Dégradé_sans_nom_71-17);
      }

      .cls-7 {
        fill: url(#Dégradé_sans_nom_71-7);
      }

      .cls-16 {
        fill: url(#Dégradé_sans_nom_71-3);
      }

      .cls-19 {
        fill: url(#Dégradé_sans_nom_26);
      }

      .cls-20 {
        fill: url(#Dégradé_sans_nom_71-9);
      }

      .cls-20, .cls-21, .cls-22 {
        opacity: .4;
      }

      .cls-8 {
        fill: url(#Dégradé_sans_nom_71-5);
      }

      .cls-17 {
        fill: url(#Dégradé_sans_nom_71-8);
      }

      .cls-9 {
        fill: url(#Dégradé_sans_nom_71-12);
      }

      .cls-23 {
        fill: url(#Dégradé_sans_nom_71-19);
        opacity: .18;
      }

      .cls-18 {
        fill: url(#Dégradé_sans_nom_71-6);
      }

      .cls-10 {
        fill: url(#Dégradé_sans_nom_71-13);
      }

      .cls-21 {
        fill: url(#Dégradé_sans_nom_71-18);
      }

      .cls-24 {
        opacity: .6;
      }

      .cls-11 {
        fill: url(#Dégradé_sans_nom_71-22);
      }

      .cls-22 {
        fill: url(#Dégradé_sans_nom_71-2);
      }

      .cls-12 {
        fill: url(#Dégradé_sans_nom_71-10);
      }

      .cls-25 {
        fill: url(#Dégradé_sans_nom_71-14);
        opacity: .44;
      }
    </style>
    <linearGradient id="Dégradé_sans_nom_71" data-name="Dégradé sans nom 71" x1="335.67" y1="825.06" x2="1306.3" y2="264.67" gradientUnits="userSpaceOnUse">
      <stop offset="0" stop-color="#e8e7ef"/>
      <stop offset=".33" stop-color="#f1f0f5"/>
      <stop offset=".5" stop-color="#f8f8fa"/>
    </linearGradient>
    <linearGradient id="Dégradé_sans_nom_26" data-name="Dégradé sans nom 26" x1="443.95" y1="345.41" x2="1204.75" y2="345.41" gradientUnits="userSpaceOnUse">
      <stop offset=".06" stop-color="#914583"/>
      <stop offset=".38" stop-color="#87407e"/>
      <stop offset=".56" stop-color="#7f3c7b"/>
      <stop offset=".97" stop-color="#542768"/>
    </linearGradient>
    <linearGradient id="Dégradé_sans_nom_37" data-name="Dégradé sans nom 37" x1="301.58" y1="676.02" x2="1204.75" y2="676.02" gradientUnits="userSpaceOnUse">
      <stop offset="0" stop-color="#d072ca"/>
      <stop offset=".18" stop-color="#c66bc8"/>
      <stop offset=".49" stop-color="#ab58c6"/>
      <stop offset=".88" stop-color="#7f3ac1"/>
      <stop offset="1" stop-color="#7130c0"/>
    </linearGradient>
    <linearGradient id="Dégradé_sans_nom_71-2" data-name="Dégradé sans nom 71" x1="1003.39" y1="210.76" x2="1020.85" y2="200.68" xlink:href="#Dégradé_sans_nom_71"/>
    <linearGradient id="Dégradé_sans_nom_71-3" data-name="Dégradé sans nom 71" x1="982.65" y1="172.92" x2="995.02" y2="165.78" xlink:href="#Dégradé_sans_nom_71"/>
    <linearGradient id="Dégradé_sans_nom_71-4" data-name="Dégradé sans nom 71" x1="938.86" y1="180.26" x2="948.86" y2="174.49" xlink:href="#Dégradé_sans_nom_71"/>
    <linearGradient id="Dégradé_sans_nom_71-5" data-name="Dégradé sans nom 71" x1="906.15" y1="158.43" x2="919.24" y2="150.88" xlink:href="#Dégradé_sans_nom_71"/>
    <linearGradient id="Dégradé_sans_nom_71-6" data-name="Dégradé sans nom 71" x1="876.72" y1="187.63" x2="886.17" y2="182.18" xlink:href="#Dégradé_sans_nom_71"/>
    <linearGradient id="Dégradé_sans_nom_71-7" data-name="Dégradé sans nom 71" x1="887.34" y1="195.35" x2="893.89" y2="191.57" xlink:href="#Dégradé_sans_nom_71"/>
    <linearGradient id="Dégradé_sans_nom_71-8" data-name="Dégradé sans nom 71" x1="1138.73" y1="248.49" x2="1148.3" y2="242.96" xlink:href="#Dégradé_sans_nom_71"/>
    <linearGradient id="Dégradé_sans_nom_71-9" data-name="Dégradé sans nom 71" x1="972.38" y1="257.1" x2="977.64" y2="254.06" xlink:href="#Dégradé_sans_nom_71"/>
    <linearGradient id="Dégradé_sans_nom_71-10" data-name="Dégradé sans nom 71" x1="1176.9" y1="283.33" x2="1182.71" y2="279.97" xlink:href="#Dégradé_sans_nom_71"/>
    <linearGradient id="Dégradé_sans_nom_71-11" data-name="Dégradé sans nom 71" x1="1181.15" y1="350.93" x2="1184.88" y2="348.78" xlink:href="#Dégradé_sans_nom_71"/>
    <linearGradient id="Dégradé_sans_nom_71-12" data-name="Dégradé sans nom 71" x1="1140.15" y1="287.04" x2="1146.55" y2="283.35" xlink:href="#Dégradé_sans_nom_71"/>
    <linearGradient id="Dégradé_sans_nom_71-13" data-name="Dégradé sans nom 71" x1="1047.55" y1="224.61" x2="1056.22" y2="219.61" xlink:href="#Dégradé_sans_nom_71"/>
    <linearGradient id="Dégradé_sans_nom_71-14" data-name="Dégradé sans nom 71" x1="1087.43" y1="342.82" x2="1097" y2="337.3" xlink:href="#Dégradé_sans_nom_71"/>
    <linearGradient id="Dégradé_sans_nom_71-15" data-name="Dégradé sans nom 71" x1="1140.95" y1="337.09" x2="1146.41" y2="333.94" xlink:href="#Dégradé_sans_nom_71"/>
    <linearGradient id="Dégradé_sans_nom_71-16" data-name="Dégradé sans nom 71" x1="1167.24" y1="219" x2="1172.21" y2="216.13" xlink:href="#Dégradé_sans_nom_71"/>
    <linearGradient id="Dégradé_sans_nom_71-17" data-name="Dégradé sans nom 71" x1="1147.19" y1="329.37" x2="1151.43" y2="326.92" xlink:href="#Dégradé_sans_nom_71"/>
    <linearGradient id="Dégradé_sans_nom_71-18" data-name="Dégradé sans nom 71" x1="640.61" y1="357.72" x2="653.38" y2="350.34" xlink:href="#Dégradé_sans_nom_71"/>
    <linearGradient id="Dégradé_sans_nom_71-19" data-name="Dégradé sans nom 71" x1="645.34" y1="309.11" x2="651.72" y2="305.42" xlink:href="#Dégradé_sans_nom_71"/>
    <linearGradient id="Dégradé_sans_nom_71-20" data-name="Dégradé sans nom 71" x1="637.95" y1="307.99" x2="643.4" y2="304.84" xlink:href="#Dégradé_sans_nom_71"/>
    <linearGradient id="Dégradé_sans_nom_71-21" data-name="Dégradé sans nom 71" x1="1149.82" y1="535.74" x2="1168.97" y2="524.68" xlink:href="#Dégradé_sans_nom_71"/>
    <linearGradient id="Dégradé_sans_nom_71-22" data-name="Dégradé sans nom 71" x1="1186.92" y1="477.94" x2="1197.31" y2="471.94" xlink:href="#Dégradé_sans_nom_71"/>
  </defs>
  <g id="Calque_3" data-name="Calque 3" class="cls-24">
    <path class="cls-14" d="M1204.75,88.78l-13.72,24.04-16.51,27.32-12.65,16.94s-33.01,40.98-63.82,39.89c-30.81-1.09-56.67-34.43-56.67-34.43,0,0-59.42-77.6-130.39-73.77-70.97,3.83-96.28,42.08-96.28,42.08,0,0-25.31,28.96-4.4,90.17,20.91,61.2-21.46,112.57-21.46,112.57,0,0-39.61,27.87-138.1-62.3-98.48-90.17-147.45,24.04-147.45,24.04,0,0-28.06,45.36,28.61,104.92,56.67,59.56,18.71,107.11-6.05,103.83-24.76-3.28-62.17-18.58-74.82-13.66-12.65,4.92-37.96,15.85-46.22,48.63-8.25,32.79,9.35,62.3-7.7,77.6-17.06,15.3-50.62,20.77-99.58,21.86-48.97,1.09-45.11,33.33-45.11,33.33,0,0,.55,26.78,23.11,30.06,22.56,3.28,36.86-8.2,36.86-8.2,0,0,17.06-10.93,47.32,15.3,30.26,26.23,36.31,22.95,36.31,22.95,0,0,24.21,0,35.76-9.84,11.55-9.84,29.71-38.8,47.87-27.32,18.16,11.48,39.06,49.18,39.06,49.18,0,0,30.26,38.8,73.72,37.16,43.46-1.64,612.32,.05,612.32,.05"/>
  </g>
  <g id="Calque_4" data-name="Calque 4">
    <path class="cls-19" d="M1204.75,120.78v449.38H443.95c0-6.28,.55-12.8,2.22-19.47,7.83-31.3,31.83-41.74,43.83-46.43,12-4.7,47.48,9.91,70.96,13.04,23.47,3.13,59.47-42.26,5.74-99.13-53.74-56.87-27.13-100.17-27.13-100.17,0,0,46.43-109.05,139.82-22.96,93.39,86.09,130.96,59.48,130.96,59.48,0,0,40.17-49.05,20.35-107.48-19.83-58.44,4.17-86.09,4.17-86.09,0,0,24-36.52,91.3-40.17,67.31-3.65,123.66,70.43,123.66,70.43,0,0,24.52,31.83,53.74,32.87,29.21,1.05,60.52-38.08,60.52-38.08l12-16.18,15.65-26.09,13.01-22.95Z"/>
    <path class="cls-13" d="M1204.75,570.16v211.71s-539.45-1.61-580.66-.05c-41.22,1.57-69.92-35.48-69.92-35.48,0,0-19.82-36-37.04-46.95-17.22-10.96-34.43,16.69-45.39,26.08-10.96,9.4-33.91,9.4-33.91,9.4,0,0-5.74,3.13-34.44-21.92-28.69-25.04-44.87-14.61-44.87-14.61,0,0-13.56,10.96-34.95,7.83-21.4-3.13-21.92-28.7-21.92-28.7,0,0-.07-.57-.07-1.55,0-6.26,2.73-29.37,42.85-30.27,46.44-1.05,78.27-6.26,94.44-20.87,12.73-11.5,5.1-31.4,5.08-54.62h760.8Z"/>
  </g>
  <g id="Calque_5" data-name="Calque 5">
    <circle class="cls-22" cx="1012.12" cy="205.72" r="10.08"/>
    <circle class="cls-16" cx="988.84" cy="169.35" r="7.14"/>
    <circle class="cls-3" cx="943.86" cy="177.38" r="5.77"/>
    <circle class="cls-8" cx="912.7" cy="154.65" r="7.56"/>
    <circle class="cls-18" cx="881.44" cy="184.9" r="5.45"/>
    <circle class="cls-7" cx="890.61" cy="193.46" r="3.78"/>
    <circle class="cls-17" cx="1143.52" cy="245.73" r="5.53"/>
    <circle class="cls-20" cx="975.01" cy="255.58" r="3.03"/>
    <circle class="cls-12" cx="1179.8" cy="281.65" r="3.36"/>
    <circle class="cls-4" cx="1183.01" cy="349.85" r="2.15"/>
    <circle class="cls-9" cx="1143.35" cy="285.19" r="3.69"/>
    <circle class="cls-10" cx="1051.88" cy="222.11" r="5"/>
    <circle class="cls-25" cx="1092.22" cy="340.06" r="5.53"/>
    <circle class="cls-2" cx="1143.68" cy="335.52" r="3.15"/>
    <circle class="cls-5" cx="1169.73" cy="217.57" r="2.87"/>
    <circle class="cls-6" cx="1149.31" cy="328.15" r="2.45"/>
    <circle class="cls-21" cx="646.99" cy="354.03" r="7.37"/>
    <circle class="cls-23" cx="648.53" cy="307.26" r="3.69"/>
    <circle class="cls-1" cx="640.68" cy="306.41" r="3.15"/>
    <circle class="cls-15" cx="1159.39" cy="530.21" r="11.05"/>
    <circle class="cls-11" cx="1192.12" cy="474.94" r="6"/>
  </g>
</svg>